<svg xmlns="http://www.w3.org/2000/svg" viewBox="0 0 33 6">
    <path fill="#FFF" d="m4.46029 2.49502-.67981-1.55677c-.08613-.203188-.18149-.379483-.28607-.516933-.10151-.140438-.30761-.307769-.7075-.307769h-.9628c-.40604 0-.61522.164343-.7198.301793-.107665.143426-.203023.316733-.286077.51992l-.633669 1.574699c-.058445.15239-.1045864.31375-.135347.48108-.0338367.16733-.049217.35259-.049217.5498v2.33665h.713647v-1.64342h3.223713v1.64342h.71365v-2.33665c0-.19721-.01846-.38247-.04922-.5498-.03384-.16136-.0769-.3257-.1415-.49602zm-2.63618-1.688245h.96588c.05229 0 .11689.005976.1415.038845.06767.095617.13227.21514.19687.36454l.67058 1.53885c.03999.11354.07382.23904.10151.37051.02461.1255.03691.26594.03691.41833h-3.223713c0-.15239.012304-.29283.036912-.41833.027685-.13147.061522-.25697.098434-.35856l.630597-1.56574c.05537-.13745.11996-.253983.18456-.3496.01538-.023904.0769-.038845.15996-.038845z"/>
    <path fill="#FFF" d="m11.6309 3.02091c-.12-.12848-.2861-.23008-.4891-.30179.0061-.01195.0123-.0239.0184-.03884.0831-.19423.1261-.41235.1261-.64243v-.60957c0-.16733-.0215-.3227-.0584-.469119-.0461-.170319-.1354-.322709-.2615-.451195s-.3014-.227092-.5198-.295817c-.2061-.065737-.45221-.095618-.75366-.095618h-2.31013v5.760959h2.95609c.3076 0 .5537-.02689.7536-.08367.2184-.05976.3938-.15239.5168-.26593.1292-.11953.2184-.26893.2676-.43925.04-.14342.0585-.2988.0585-.46314v-.61255c0-.17929-.0185-.34961-.0523-.502-.04-.18824-.123-.35259-.2522-.49004zm-1.0582-.98306c0 .09263-.0092.18526-.0277.26892-.0092.04781-.0338.08964-.0738.12849-.0308.02988-.0985.07769-.2338.11653-.1261.03884-.31068.05677-.54754.05677h-1.5934v-1.80179h1.5934c.55064 0 .69514.12251.72594.158367.1046.122513.1569.274903.1569.460163zm-2.47624 1.26693h2.25164c.526 0 .6737.11653.7137.16733.1076.14044.1599.31374.1599.53785v.61255c0 .18526-.0461.32271-.1415.42131-.0215.02391-.1661.14044-.7413.14044h-2.24244z"/>
    <path fill="#FFF" d="m18.7666 3.02091c-.12-.12848-.2861-.23008-.4891-.30179.0062-.01195.0123-.02689.0185-.03884.083-.19721.1261-.41235.1261-.64243v-.60957c0-.16434-.0185-.31972-.0585-.469119-.0461-.170319-.1353-.322709-.2645-.451195-.1261-.128486-.3015-.227092-.5199-.295817-.203-.065737-.4521-.095618-.7536-.095618h-2.307v5.760959h2.9561c.3076 0 .5536-.02689.7536-.08367.2215-.06275.3906-.1494.5168-.26892.1292-.11952.2184-.26893.2645-.43626.04-.14342.0615-.2988.0615-.46613v-.61255c0-.17929-.0184-.34662-.0523-.50199-.04-.18526-.1261-.34961-.2522-.48706zm-1.0582-.98306c0 .09263-.0092.18227-.0277.26892-.0092.04781-.0338.08964-.0738.12849-.0307.02988-.0984.0747-.2338.11653-.1261.03884-.3106.05677-.5475.05677h-1.5934v-1.80179h1.5934c.5506 0 .6952.12251.726.158367.1045.125503.1568.274903.1568.460163zm-2.4762 1.26693h2.2517c.5414 0 .6829.12848.7136.16733.1077.14044.16.31374.16.53785v.61255c0 .18526-.0462.32271-.1446.42131-.0215.02391-.163.14044-.7413.14044h-2.2425v-1.87948z"/>
    <path fill="#FFF" d="m23.8021 0c-.8551 0-1.4334.143426-1.7687.433267-.3415.295817-.5168.684263-.5168 1.156373v2.82072c0 .46912.1753.85757.5168 1.15637.3353.29283.9166.43626 1.7687.43626s1.4335-.14044 1.778-.43327c.3507-.29582.5291-.68725.5291-1.15637v-2.82371c0-.47211-.1784-.860556-.5291-1.156373-.3445-.292829-.9259-.433267-1.778-.433267zm0 5.30677c-.809 0-1.1443-.14044-1.2858-.25697-.1968-.16434-.2861-.36753-.2861-.63944v-2.82072c0-.26892.0954-.47809.2861-.639441.1415-.116534.4768-.256972 1.2858-.256972s1.1535.140438 1.2981.25996c.2.164343.2953.367533.2953.636453v2.82072c0 .27191-.0923.47211-.2953.63645-.1446.11952-.486.25996-1.2981.25996z"/>
    <path fill="#FFF" d="m28.251.113548v.693227h2.0179v5.067725h.7136v-5.067725h2.0179v-.693227z"/>
</svg>